# xmcd
#
# Track frame offsets:
#	150
#	10895
#	22155
#	33505
#	44287
#	56490
#	67857
#	80475
#	91157
#	101860
#	112737
#	123405
#	133605
#	144762
#	155265
#	166407
#	174520
#	185280
#	196852
#	209460
#	220020
#	231092
#	240835
#	252595
#	265902
#	278142
#	289247
#	302260
#	314177
#	324220
#	333262
#	343947
# Disc length: 4710 seconds
# Revision: 1
# Processed by: cddbd v1.5.1PL0 Copyright (c) Steve Scherf et al.
#
# Submitted via: libkcddb 0.10
#
DISCID=c0126420
DTITLE=Piano Red - Dr. Feelgood - The Doctor's In [CD 1)
DYEAR=1900
DGENRE=Blues
TTITLE0=Jumpin' The Boogie 1951
TTITLE1=Rockin' With Red 1950
TTITLE2=Let's Have A Good Time Tonight 1951
TTITLE3=Red's Boogie 1950
TTITLE4=Right String But The Wrong Yo Yo 1950
TTITLE5=My Gal Jo 1950
TTITLE6=Baby, What's Wrong 1951
TTITLE7=Well, Well Baby 1993
TTITLE8=Just Right Bounce 1951
TTITLE9=Diggin' The Boogie 1951
TTITLE10=Layin' The Boogie 1951
TTITLE11=Bouncin' With Red 1952
TTITLE12=It Makes No Difference Now 1951
TTITLE13=Hey Good Lookin' 1951
TTITLE14=Count The Days I'm Gone 1952
TTITLE15=My Boogie 1993
TTITLE16=The Sales Tax Boogie 1952
TTITLE17=Voo Doopee Doo 1952
TTITLE18=Daybreak 1952
TTITLE19=She Walks Right In 1952
TTITLE20=I'm Gonna Tell Everybody 1953
TTITLE21=I'm Gonna Rock Some More 1952
TTITLE22=She's Dynamite 1953
TTITLE23=Everybody's Boogie 1952
TTITLE24=Your Mouth's Got A Hole In It 1953
TTITLE25=Right And Ready 1953
TTITLE26=Taxi, Taxi, 6963 1953
TTITLE27=Decatur Street Boogie 1953
TTITLE28=Sober 1993
TTITLE29=She Knocks Me Out 1954
TTITLE30=Going Away Baby 1993
TTITLE31=Chittlin' Hop 1954
EXTD=
EXTT0=
EXTT1=
EXTT2=
EXTT3=
EXTT4=
EXTT5=
EXTT6=
EXTT7=
EXTT8=
EXTT9=
EXTT10=
EXTT11=
EXTT12=
EXTT13=
EXTT14=
EXTT15=
EXTT16=
EXTT17=
EXTT18=
EXTT19=
EXTT20=
EXTT21=
EXTT22=
EXTT23=
EXTT24=
EXTT25=
EXTT26=
EXTT27=
EXTT28=
EXTT29=
EXTT30=
EXTT31=
PLAYORDER=
